<svg width="124" height="129" viewBox="0 0 124 129" fill="none" xmlns="http://www.w3.org/2000/svg">
<path d="M67 9.00034C67.0002 6.23891 64.7618 4.00019 62.0003 4C59.2389 3.99981 57.0002 6.23824 57 8.99966L67 9.00034ZM62 9L57 8.99966L56.9932 110L61.9932 110L66.9932 110L67 9.00034L62 9Z" fill="#60B5FF"/>
<path d="M55.0673 26.9647C55.079 24.2033 52.8504 21.9178 50.0896 21.8599C47.3288 21.802 45.0812 23.9936 45.0695 26.755L55.0673 26.9647ZM50.0684 26.8599L45.0695 26.755L44.7866 93.4402L49.7855 93.5451L54.7844 93.6499L55.0673 26.9647L50.0684 26.8599Z" fill="#60B5FF"/>
<path d="M42.8234 39.4906C42.8351 36.7292 40.6065 34.4437 37.8457 34.3858C35.0849 34.3279 32.8373 36.5195 32.8256 39.2809L42.8234 39.4906ZM37.8245 39.3857L32.8256 39.2809L32.6633 77.5416L37.6622 77.6465L42.6611 77.7513L42.8234 39.4906L37.8245 39.3857Z" fill="#60B5FF"/>
<path d="M93.305 40.3151C93.3035 37.5537 91.064 35.279 88.303 35.2344C85.5419 35.1898 83.3048 37.3922 83.3063 40.1536L93.305 40.3151ZM88.3057 40.2344L83.3063 40.1536L83.3268 78.4178L88.3262 78.4985L93.3255 78.5792L93.305 40.3151L88.3057 40.2344Z" fill="#60B5FF"/>
<path d="M80.1485 28.2282C80.147 25.4668 77.9076 23.1921 75.1465 23.1475C72.3854 23.1029 70.1483 25.3053 70.1498 28.0667L80.1485 28.2282ZM75.1492 28.1475L70.1498 28.0667L70.1856 94.7556L75.1849 94.8364L80.1843 94.9171L80.1485 28.2282L75.1492 28.1475Z" fill="#60B5FF"/>
</svg>
